<svg xmlns="http://www.w3.org/2000/svg" width="337" height="77" viewBox="0 0 337 77">
  <g id="Group_2615" data-name="Group 2615" transform="translate(-342 -650.783)">
    <g id="Group_2611" data-name="Group 2611" transform="translate(-404)">
      <rect id="Rectangle_391" data-name="Rectangle 391" width="77" height="77" transform="translate(746 650.783)" fill="#fff"/>
      <g id="Group_2251" data-name="Group 2251" transform="translate(761.35 669.051)">
        <g id="Group_89" data-name="Group 89">
          <g id="Group_70" data-name="Group 70">
            <path id="Path_40" data-name="Path 40" d="M917.042,536.776,918.8,540.4m-51.457-23.527c16.862-5.983,30.444.183,37.077,5.314" transform="translate(-867.187 -511.117)" fill="none" stroke="#414962" stroke-width="1"/>
            <path id="Subtraction_1" data-name="Subtraction 1" d="M867.325,548.767H867.1l19.869-41.549h6.648l-7,11.138h-2.38V522L876.6,534.058h-2.083v3.324l-7.194,11.36v.024Zm-.322-.05h0v-.707l8.558-40.818h5.916l-14.462,41.522Zm46.192-1.876h0a7.543,7.543,0,0,1-2.008-.3,3.848,3.848,0,0,1-1.865-1.168,4.811,4.811,0,0,1-1.082-2.252l2.894-.649.037.087a2.714,2.714,0,0,0,.564.941,1.8,1.8,0,0,0,1.3.428h.027c.069,0,.137.006.2.006a1.356,1.356,0,0,0,.826-.2.671.671,0,0,0,.254-.47c.115-.81-.705-1.041-1.429-1.245l-.062-.018a7.6,7.6,0,0,1-3.1-1.386,2.781,2.781,0,0,1-.821-1.071,4.437,4.437,0,0,1-.141-2.226,4.085,4.085,0,0,1,1.12-2.089,4.2,4.2,0,0,1,2.459-1.049,7.674,7.674,0,0,1,.858-.056h.038a4.986,4.986,0,0,1,1.665.262,3.65,3.65,0,0,1,1.19.694,4.784,4.784,0,0,1,1.318,2.117l-2.7.859c-.038-.057-.078-.117-.116-.175h0a3.652,3.652,0,0,0-.562-.722,1.269,1.269,0,0,0-.867-.347h-.03a1.3,1.3,0,0,0-.985.34.974.974,0,0,0-.256.553.61.61,0,0,0,.263.557,1.788,1.788,0,0,0,.754.319,12.62,12.62,0,0,1,2.321.689c.114.046.222.087.331.128a2.894,2.894,0,0,1,1.871,1.863,4.469,4.469,0,0,1-.026,2.829,3.941,3.941,0,0,1-.635,1.141,3.761,3.761,0,0,1-.965.855,4.82,4.82,0,0,1-2.638.758Zm-7.255-.1h-2.8l-1.438-6.981-1.4,6.929h-2.875l-2.861-12.19h3.14l1.508,7.191,1.421-7.209h2.646l1.491,7.1,1.509-7.086h2.543l-2.875,12.243Zm-20.637-.025h-2.99l-4.167-6.981-.015,6.981h-3.115V534.55h3.55l3.685,6.141v-6.156h3.057v12.177Zm8.761-.011h-8v-12.19h7.894v2.842h-4.825v1.806H893.1v2.631h-3.982v2.122h4.947V546.7Zm5.932-14.3a6.893,6.893,0,0,1-4.857-1.984,6.708,6.708,0,0,1,0-9.58,6.927,6.927,0,0,1,9.715,0,6.709,6.709,0,0,1,0,9.58,6.9,6.9,0,0,1-4.861,1.984Zm-.031-10.927a1.232,1.232,0,0,0-.706.274,1.253,1.253,0,0,0-.472.69l-.011,5.942a1.421,1.421,0,0,0,.42.854,1.075,1.075,0,0,0,.714.311h.02c.942,0,1.09-.628,1.209-1.134v-5.791a1.676,1.676,0,0,0-.3-.73,1.09,1.09,0,0,0-.832-.415Zm-11.389,10.783h-3.907V518.874h8.356l.286,3.643h-4.692v1.79h3.813v3.611h-3.855v4.334Zm28.722,0h0l-4.326,0-1.965-3.314-1.9,3.285H904.9l3.977-6.875-3.833-6.448h4.276l1.667,2.741,1.611-2.719h4.254l-3.7,6.367,4.152,6.963Z" transform="translate(-867.002 -507.193)" fill="#3f4964"/>
          </g>
        </g>
      </g>
    </g>
    <g id="Group_2614" data-name="Group 2614" transform="translate(0.099)">
      <rect id="Rectangle_395" data-name="Rectangle 395" width="77" height="77" transform="translate(601.901 650.783)" fill="#fff"/>
      <g id="Group_2247" data-name="Group 2247" transform="translate(611.594 677.436)">
        <g id="Group_91" data-name="Group 91">
          <g id="Group_79" data-name="Group 79">
            <g id="Group_77" data-name="Group 77">
              <g id="Group_76" data-name="Group 76">
                <path id="Path_66" data-name="Path 66" d="M494.624,112a4.61,4.61,0,0,0-4.315,4.69V129.3a.845.845,0,0,1-.87.849h-4.117c-8.914.011-8.122-10.888-.534-10.9h4.552v-3.168h-4.718a8.959,8.959,0,0,0-6.775,2.689,8.692,8.692,0,0,0-2.276,5.937,8.483,8.483,0,0,0,2.294,5.924,9.49,9.49,0,0,0,7.093,2.689h7.764a.938.938,0,0,0,.937-.913V117.02a1.591,1.591,0,0,1,1.071-1.586,1.609,1.609,0,0,1,1.739.625l.017.017c2.209,3.455,10.978,16.914,10.992,16.938a.669.669,0,0,0,.735.321c.209-.067.421-.284.418-.818v-15.5a1.524,1.524,0,0,1,2.8-.961v.017h.031c2.209,3.456,10.978,16.914,10.992,16.938a.663.663,0,0,0,.735.322c.219-.068.439-.271.435-.8V112.076h-3.329v11.94s-1.986-3.246-5.386-8.836c-3.332-5.475-9.62-3.209-9.62,1.5v7.331s-1.951-3.246-5.354-8.836c-1.457-2.394-3.489-3.31-5.305-3.186Zm-9.419.081c-18.53,0-18.349,25.262.251,25.276h7.277c3.128,0,5.125-1.772,5.121-5.042v-6.4s4.086,6.462,5.691,8.994c2.721,4.305,9.3,3.456,9.284-1.92v-7.074s4.071,6.462,5.672,8.994c2.721,4.305,9.32,3.456,9.3-1.92V112.074h-3.329v20.457a1.477,1.477,0,0,1-2.711.944h-.017v-.03s-8.772-13.421-11.009-16.921c-.007-.007-.011.007-.018,0s0-.017,0-.017a.709.709,0,0,0-.771-.287c-.251.074-.487.281-.484.8v15.494a1.588,1.588,0,0,1-1,1.586,1.526,1.526,0,0,1-1.672-.625v-.017h-.017s-8.779-13.448-11.009-16.937a.711.711,0,0,0-.784-.322c-.251.075-.488.281-.485.8v15.4a1.759,1.759,0,0,1-1.774,1.715h-7.765a10.362,10.362,0,0,1-7.7-2.945,9.271,9.271,0,0,1-2.545-6.469,9.508,9.508,0,0,1,2.509-6.482,9.87,9.87,0,0,1,7.394-2.945h4.718v-3.2H485.2Z" transform="translate(-471.406 -111.983)" fill="#3f4964"/>
              </g>
            </g>
          </g>
        </g>
      </g>
    </g>
    <g id="Group_2613" data-name="Group 2613" transform="translate(-1.268)">
      <rect id="Rectangle_393" data-name="Rectangle 393" width="77" height="77" transform="translate(516.268 650.783)" fill="#fff"/>
      <g id="Group_2249" data-name="Group 2249" transform="translate(522.68 680.209)">
        <g id="Group_92" data-name="Group 92">
          <g id="Group_78" data-name="Group 78">
            <path id="Path_23" data-name="Path 23" d="M721.969,260a9.546,9.546,0,1,0,9.467,9.625v-.079A9.506,9.506,0,0,0,721.97,260Zm8.723,9.478c-1.657,3.086-4.767,5.693-8.723,5.676a10.258,10.258,0,0,1-8.722-5.676,10.209,10.209,0,0,1,8.723-5.556A10.046,10.046,0,0,1,730.692,269.476Z" transform="translate(-712.344 -259.893)" fill="#3f4964"/>
            <path id="Path_24" data-name="Path 24" d="M721.838,274.1a4.8,4.8,0,1,0,4.8-4.845A4.8,4.8,0,0,0,721.838,274.1Z" transform="translate(-717.018 -264.45)" fill="#3f4964"/>
            <path id="Path_25" data-name="Path 25" d="M763,260.441a4.75,4.75,0,0,0-2.211-.5c-2.918,0-8,3.911-8,9.575,0,6.7,4.509,9.574,8,9.574a5.026,5.026,0,0,0,2.3-.63,4.336,4.336,0,0,1,1.9-.629,2.086,2.086,0,0,1,1.458.674v-6.744c-.485,2.607-2.387,7.147-5.7,7.147a4.474,4.474,0,0,1-2.852-1.079c-.184-.193-1.481-1.124-1.481-8.314,0-6.922,1.989-9.394,4.332-9.394,3.315,0,5.128,4.988,5.7,6.922v-6.7a2.086,2.086,0,0,1-1.458.674A4.7,4.7,0,0,1,763,260.441Z" transform="translate(-731.394 -259.866)" fill="#3f4964"/>
            <path id="Path_26" data-name="Path 26" d="M791.239,269.027c3.654-.778,4.31-2.377,4.31-4.069,0-2.261-2.577-4.48-6.278-4.48h-8.713v.183h2.9V278.9h-2.9v.183h9.136c2.765,0,6.8-1.737,6.8-5.3S792.644,269.21,791.239,269.027Zm-4.047-8.366h2.032c1.64,0,3.187.412,3.187,4.251s-1.287,4.021-2.507,4.021h-2.712ZM789.6,278.9h-2.67v-.043h.266v-9.74h2.547c1.874.046,3.374.96,3.374,4.937s-1.362,4.846-3.519,4.846Z" transform="translate(-744.409 -260.129)" fill="#3f4964"/>
            <path id="Path_27" data-name="Path 27" d="M821.122,267.9c-1.111-.39-5.494-1.141-5.494-4.263a3.273,3.273,0,0,1,5.1-2.882c1.892,1.352,2.852,5.134,2.912,6.154h.24l-.03-6.964h-.21a2.163,2.163,0,0,1-1.44.661c-.841,0-2.132-.811-3.513-.811a5.53,5.53,0,0,0-5.013,5.644c0,4.173,2.793,4.894,4.113,5.433s5.464,1.412,5.464,4.173a3.436,3.436,0,0,1-3.6,3.725c-1.651,0-3.662-1.2-4.773-3.693a11.154,11.154,0,0,1-1.141-3.663h-.27v7.117h.21a1.655,1.655,0,0,1,1.17-.66c.691,0,3.032,1.231,4.894,1.231a6.185,6.185,0,0,0,5.674-6.123C825.415,268.766,822.233,268.286,821.122,267.9Z" transform="translate(-760.052 -259.79)" fill="#3f4964"/>
          </g>
        </g>
      </g>
    </g>
    <g id="Group_2612" data-name="Group 2612" transform="translate(-2.634)">
      <rect id="Rectangle_392" data-name="Rectangle 392" width="77" height="77" transform="translate(430.634 650.783)" fill="#fff"/>
      <g id="Group_2250" data-name="Group 2250" transform="translate(447.253 667.781)">
        <g id="Group_71" data-name="Group 71">
          <path id="Path_45" data-name="Path 45" d="M634.281,308.309l-.017-.085-.017-.1-.017-.1v-.084l-.017-.1-.034-.1-.017-.085-.017-.1-.034-.085-.017-.1-.034-.1-.017-.085-.034-.1-.034-.085-.034-.1-.034-.085-.051-.1-.034-.085-.034-.085-.051-.1-.034-.085-.051-.085-.051-.085-.051-.1-.051-.085-.051-.085-.051-.085-.051-.085-.068-.1-.051-.068-.017-.017-.017-.034-.017-.034-.034-.034-.017-.017-.034-.034-.017-.034-.034-.034-.017-.034-.034-.051-.034-.034-.034-.034-.017-.034-.034-.034-.034-.034-.034-.051-.051-.051-.051-.051-.051-.051-.051-.051-.034-.051-.051-.051-.051-.051-.051-.051-.051-.034-.051-.051-.051-.034-.051-.051-.051-.034-.051-.051-.051-.034-.067-.068-.068-.051-.068-.034-.068-.051-.068-.051-.068-.051-.068-.034-.068-.051-.068-.034-.085-.051-.068-.034-.068-.034-.084-.051-.068-.034-.068-.034-.085-.034-.068-.034-.085-.034-.068-.034-.085-.034-.085-.017-.068-.034-.085-.034-.085-.017-.084-.034-.068-.017-.084-.017-.085-.034-.084-.017-.085-.017-.085-.017-.085-.017-.152-.034-.135-.017-.152-.017-.135-.017-.152-.017-.136-.017h-.71l-1.421.1-.338-1.268-.051-.135-.034-.118-.017-.068-.034-.085-.017-.068-.017-.051-.017-.051-.017-.034-.017-.051-.051-.085-.051-.135-.051-.118-.068-.135-.068-.118-.068-.118-.068-.118-.068-.118-.085-.118-.068-.118-.085-.118-.084-.1-.085-.118-.085-.1-.1-.1-.085-.1-.1-.1-.1-.1-.1-.085-.1-.085-.118-.1-.1-.085-.118-.085-.1-.068-.118-.084-.118-.085-.118-.068-.118-.068-.135-.068-.118-.068-.135-.051-.118-.068-.085-.034-.051-.017-.051-.034-.068-.017-.051-.017-.068-.017-.051-.034-.068-.017-.051-.017-.051-.017-.068-.017-.051-.017-.068-.017-.051-.017-.068-.017-.051-.017-.085-.034-.085-.017-.085-.017-.1-.017-.085-.017-.1-.017-.084-.017-.084-.017-.1-.017h-.085l-.1-.017h-.085l-.084-.017h-.558l-.1.017h-.085l-.085.017h-.1l-.084.017-.1.017-.084.017-.085.017-.1.017-.085.017-.085.017-.1.017-.068.034h-.051l-.034.017h-.034l-.034.017-.034.017h-.017l-.034.017h-.034l-.034.017h-.034l-.034.017-.034.017h-.034l-.068.034-.169.068-.135.051-.135.051-.118.068-.135.068-.118.068-.135.068-.118.068-.118.085-.119.068-.118.085-.118.085-.118.085-.964.761-.964-.761-.119-.085-.1-.085-.118-.085-.118-.068-.119-.085-.118-.068-.135-.068-.118-.068-.135-.068-.118-.068-.136-.051-.135-.051-.186-.085-.085-.017-.017-.017h-.034l-.034-.017h-.017l-.034-.017h-.034l-.017-.017h-.034l-.034-.017h-.034l-.034-.017-.034-.017h-.051l-.085-.034-.085-.017-.085-.017-.084-.017-.1-.017-.085-.017-.1-.017-.085-.017-.085-.017h-.1l-.085-.017h-.1l-.085-.017H611.3l-.085.017h-.1l-.085.017h-.085l-.1.017-.085.017-.1.017-.084.017-.085.017-.1.017-.085.017-.084.017-.1.034-.051.017-.051.017-.068.017-.051.017-.051.017-.068.017-.051.017-.051.017-.068.017-.051.034-.068.017-.051.017-.068.034-.051.017-.068.034-.068.017-.135.068-.118.068-.135.068-.118.068-.118.068-.118.068-.118.085-.118.068-.119.085-.1.085-.118.085-.1.085-.1.1-.1.085-.1.1-.1.1-.1.1-.085.1-.085.1-.084.1-.085.118-.085.1-.084.118-.068.118-.068.118-.084.118-.051.118-.068.118-.068.135-.05.118-.051.135-.051.085-.017.051-.017.034-.017.051-.017.051-.017.068-.034.085-.017.068-.034.118-.051.135-.338,1.268-1.421-.085-.135-.017h-.423l-.152.017h-.135l-.135.017-.152.017-.135.017-.135.017-.169.034-.1.017-.085.017-.084.017-.085.034-.068.017-.084.017-.085.034-.084.017-.068.034-.085.017-.068.034-.084.034-.085.017-.068.034-.085.034-.068.034-.068.034-.085.034-.068.051-.084.034-.068.034-.068.051-.068.034-.068.051-.085.034-.068.051-.068.034-.068.051-.068.051-.068.051-.068.051-.051.051-.068.034-.034.051-.051.034-.051.051-.051.034-.051.051-.051.051-.051.051-.051.034-.051.051-.051.051-.051.068-.051.051-.051.051-.051.068-.017.034h-.017l-.034.051-.034.034-.034.034-.034.034-.017.051-.034.034-.034.034-.017.034-.034.034-.017.017-.017.034-.034.034-.017.034-.017.034-.034.034-.034.051-.034.051-.034.051-.017.034-.034.051-.034.051-.034.034-.017.051-.034.051-.017.051-.034.034-.034.051-.017.051-.034.051-.017.051-.034.051-.017.034-.017.051-.034.051-.017.051-.034.051-.017.051-.017.051-.017.051-.034.051-.017.051-.017.051-.017.051-.017.051-.017.051-.017.051-.017.068-.034.068-.017.085-.034.085-.017.085-.017.085-.017.085-.017.085-.017.085-.017.085-.017.084-.017.085v.085l-.017.085v.085l-.017.085v.693l.017.085v.169l.017.085.017.085v.085l.017.085.017.085.017.1.017.085.017.068.017.068.017.068.017.068.017.068.017.085.017.068.017.068.017.068.017.068.422,1.3-1.184.643-.085.051-.084.051-.085.051-.085.051-.084.051-.051.051-.068.034-.068.051-.051.051-.068.034-.068.051-.068.051-.051.051-.068.051-.068.051-.051.051-.068.068-.051.051-.068.051-.051.051-.085.085-.1.1-.084.1-.1.1-.084.118-.085.1-.085.118-.084.118-.068.1-.085.118-.068.118-.068.135-.068.118-.051.118-.067.135-.051.118-.051.135-.051.118-.051.135-.034.135-.051.135-.034.135-.034.135-.017.135-.034.135-.017.135-.034.135-.017.135v.135l-.017.152v.135l-.017.135v.288l.017.135v.135l.017.152v.135l.017.135.034.135.017.135.034.135.017.135.034.135.034.135.051.135.034.135.051.118.051.135.051.118.051.135.067.118.051.135.068.118.068.118.068.118.085.118.068.118.084.118.085.1.085.118.084.1.1.1.084.118.118.119.068.068.051.034.034.051.051.034.051.034.034.051.051.034.051.034.034.034.051.034.051.051.034.034.051.034.051.034.051.034.034.034.051.034.051.034.051.034.051.034.034.017.051.034.051.034.051.034.051.034.051.017.051.034.051.034.051.017.051.034.051.017.034.034.051.017.085.051.068.034.068.034.085.034.068.034.085.034.068.034.084.017.085.034.068.034.085.017.084.017.067.034.085.017.085.017.085.034.068.017.085.017.084.017h.085l.085.017.068.017.085.017h.084l.085.017h.169l.084.017h32.4l.1-.017h.118l.1-.017h.1l.118-.017.1-.017.1-.017.118-.034.1-.017.1-.017.1-.034.1-.034.118-.034.1-.017.1-.051.1-.034.1-.034.1-.034.084-.051.1-.051.1-.034.1-.051.085-.051.1-.051.1-.068.085-.051.1-.051.085-.068.1-.051.1-.085.068-.051.051-.034.034-.034.051-.034.051-.034.034-.034.051-.034.051-.051.034-.034.051-.034.051-.034.034-.051.051-.034.051-.051.034-.034.051-.051.169-.169.068-.068.051-.068.068-.068.051-.068.051-.068.051-.068.068-.068.051-.068.034-.068.051-.068.051-.068.051-.085.051-.068.034-.068.051-.085.034-.068.034-.068.051-.085.034-.068.034-.085.034-.068.034-.085.034-.068.034-.085.034-.068.034-.085.017-.068.034-.085.017-.085.034-.068.017-.085.034-.1.017-.068.017-.034v-.051l.017-.051v-.051l.017-.051.017-.051V318.9l.017-.051v-.051l.017-.051v-.068l.017-.051v-.051l.017-.051v-.135l.017-.034v-.22l.017-.034v-.575l-.017-.118v-.22l-.017-.118-.017-.118-.017-.1-.017-.118-.017-.118-.017-.1-.034-.118-.017-.1-.034-.118-.034-.1-.034-.118-.034-.1-.034-.1-.034-.119-.051-.1-.034-.1-.051-.1-.051-.1-.051-.1-.051-.1-.051-.1-.068-.1-.051-.1-.068-.085-.068-.1-.068-.085-.051-.084-.017-.034-.051-.051-.034-.051-.034-.034-.034-.051-.034-.051-.034-.034-.051-.051-.034-.034-.034-.051-.034-.034-.034-.034-.034-.051-.034-.034-.051-.034-.017-.034-.051-.051-.068-.051-.068-.068-.051-.051-.068-.051-.068-.068-.051-.051-.068-.051-.067-.051-.051-.051-.068-.034-.068-.051-.051-.051-.068-.034-.05-.051-.068-.034-.068-.051-.085-.051-.068-.051-.085-.051-.085-.034-.085-.051L633.571,312l.423-1.3.017-.051.017-.051v-.051l.017-.034.017-.051v-.051l.017-.034.017-.051.017-.051v-.051l.017-.051.017-.051v-.051l.017-.051.017-.051v-.051l.017-.051.017-.085V309.7l.017-.068.017-.085v-.085l.017-.085v-.085l.017-.068v-.085l.017-.084v-.541l-.017-.1v-.1Z" transform="translate(-594.504 -297.671)" fill="#fff" fill-rule="evenodd"/>
          <path id="Path_46" data-name="Path 46" d="M606.587,362.251a4.579,4.579,0,0,0-1.607-.253,3.8,3.8,0,0,0-2.2.693,4.692,4.692,0,0,0-.727.592,4.294,4.294,0,0,0,0,5.885,3.9,3.9,0,0,0,1.133.812,3.716,3.716,0,0,0,1.793.457H618.95l-10.824-7.289c-.271-.169-.508-.338-.728-.457a5.035,5.035,0,0,0-.812-.44Z" transform="translate(-599.315 -346.151)" fill="#3f4964" fill-rule="evenodd"/>
          <path id="Path_47" data-name="Path 47" d="M621.874,327.009a2.122,2.122,0,0,1-.321-.22,4.117,4.117,0,0,0-3.146-.558,4.027,4.027,0,0,0-1.725.778,4.255,4.255,0,0,0-.558.541c-.118.135-.22.288-.321.423a4.061,4.061,0,0,0-.575,1.15,3.821,3.821,0,0,0-.1,1.962,4.826,4.826,0,0,0,.592,1.573,3.642,3.642,0,0,0,1.1,1.116l12.194,8.338-5.5-12.6c-.068-.135-.118-.27-.169-.389a7.606,7.606,0,0,0-.609-1.235c-.085-.1-.169-.22-.271-.338a4.63,4.63,0,0,0-.592-.541Z" transform="translate(-609.985 -319.128)" fill="#3f4964" fill-rule="evenodd"/>
          <path id="Path_48" data-name="Path 48" d="M652.217,304.3a2.372,2.372,0,0,0-.372-.118,3.946,3.946,0,0,0-2.08,0,5.9,5.9,0,0,0-.71.254,3.935,3.935,0,0,0-2.182,2.266c-.017.051-.051.118-.068.169a4.106,4.106,0,0,0,.084,3.044l5.97,13.716,1.979-13.851a9.984,9.984,0,0,0,.152-1.759,4.23,4.23,0,0,0-.237-1.15c-.034-.135-.1-.27-.152-.423a4.02,4.02,0,0,0-2.385-2.148Z" transform="translate(-633.732 -302.47)" fill="#3f4964" fill-rule="evenodd"/>
          <path id="Path_49" data-name="Path 49" d="M702.03,362.691c-.22.118-.457.288-.727.457l-10.824,7.289h13.969a4,4,0,0,0,2.351-.778,6.9,6.9,0,0,0,.575-.49l.118-.118a3.876,3.876,0,0,0,.93-1.691,3.338,3.338,0,0,0,.119-.592c.017-.169.017-.355.017-.524a3.982,3.982,0,0,0-.778-2.469,3.653,3.653,0,0,0-.406-.491,4.759,4.759,0,0,0-.744-.592,3.52,3.52,0,0,0-.93-.49,3.957,3.957,0,0,0-1.252-.2,4.417,4.417,0,0,0-1.59.253,5.094,5.094,0,0,0-.829.44Z" transform="translate(-666.836 -346.151)" fill="#3f4964" fill-rule="evenodd"/>
          <path id="Path_50" data-name="Path 50" d="M692.048,306.867c-.017-.051-.051-.118-.068-.169a3.988,3.988,0,0,0-2.182-2.266,5.913,5.913,0,0,0-.71-.254,3.947,3.947,0,0,0-2.08,0,2.372,2.372,0,0,0-.372.118,4.072,4.072,0,0,0-2.385,2.148c-.051.152-.118.287-.169.423a4.157,4.157,0,0,0-.2,1.81v.085h1.133c.338.034.558.085.609.169.085.085-.084.22-.456.372l-.288.186-.355.287a1.035,1.035,0,0,0-.287.575,1.858,1.858,0,0,0-.034.541,1.353,1.353,0,0,0,.017.254l1.775,12.481,5.987-13.716a4.1,4.1,0,0,0,.068-3.044Z" transform="translate(-661.842 -302.47)" fill="#3f4964" fill-rule="evenodd"/>
          <path id="Path_51" data-name="Path 51" d="M706.92,330.138a4.172,4.172,0,0,0-.744-2.165c-.1-.135-.2-.288-.322-.423a4.216,4.216,0,0,0-.558-.541,3.983,3.983,0,0,0-1.742-.778,4.116,4.116,0,0,0-3.146.558,3.547,3.547,0,0,1-.321.22,6.029,6.029,0,0,0-.575.541,2.141,2.141,0,0,0-.27.338,10.34,10.34,0,0,0-.795,1.624l-5.5,12.6,12.194-8.338a3.641,3.641,0,0,0,1.1-1.116.269.269,0,0,0,.068-.118,4.245,4.245,0,0,0,.372-.846c.051-.186.118-.406.152-.609a3.66,3.66,0,0,0,.085-.947Z" transform="translate(-668.698 -319.128)" fill="#3f4964" fill-rule="evenodd"/>
          <path id="Path_52" data-name="Path 52" d="M628.6,410.71v3.213h1.573a1.353,1.353,0,0,0,1.1-.524,1.855,1.855,0,0,0,.423-1.234,1.409,1.409,0,0,0-.507-1.015,1.443,1.443,0,0,0-1.065-.44Zm0,5.6v3.5h1.81a2.916,2.916,0,0,0,1.522-.389,1.314,1.314,0,0,0,.677-1.218c0-1.167-.744-1.809-2.2-1.894Zm18.485-8.168v3.213a5.238,5.238,0,0,0-2.384-.744,9.907,9.907,0,0,0-1,.1,4.944,4.944,0,0,0-2.993,1.539,4.366,4.366,0,0,0-1.184,3.061,4.209,4.209,0,0,0,1.1,2.909,4.926,4.926,0,0,0,2.79,1.59,5.141,5.141,0,0,0,1.15.1,5.363,5.363,0,0,0,2.52-.761v3.518a7.748,7.748,0,0,1-2.723.507,7.244,7.244,0,0,1-.947-.034,9.181,9.181,0,0,1-3.924-1.268,7.716,7.716,0,0,1-2.808-2.858,7.831,7.831,0,0,1-1.048-4.008,7.355,7.355,0,0,1,1.15-3.738,7.658,7.658,0,0,1,2.841-2.655,8.771,8.771,0,0,1,3.89-1.1,9.333,9.333,0,0,1,3.569.626Zm-31.812,14.527h-3.129V407.513l8.642,7.8v-7.171H624v15l-8.727-8.135v7.661Zm10.164,0V408.139H631.7a3.488,3.488,0,0,1,2.165,1.032,3.418,3.418,0,0,1,.964,2.2,3.621,3.621,0,0,1-1.691,3.315,3.82,3.82,0,0,1,2.5,3.568,4.439,4.439,0,0,1-1.117,3.027,4.022,4.022,0,0,1-2.824,1.387Z" transform="translate(-607.801 -380.454)" fill="#3f4964" fill-rule="evenodd"/>
        </g>
      </g>
    </g>
  </g>
</svg>
