<svg xmlns="http://www.w3.org/2000/svg" width="279.264" height="81.858" viewBox="0 0 279.264 81.858">
  <g id="Group_275" data-name="Group 275" transform="translate(-175.762 -22.288)">
    <g id="Group_1" data-name="Group 1" transform="translate(175.762 22.288)">
      <path id="Path_1" data-name="Path 1" d="M77.415,56.813c-2.788,1.06-5.416,2.02-8.012,3.065-.941.378-1.218-.15-1.559-.8a37.108,37.108,0,0,1-3.768-11.431,39.827,39.827,0,0,1,7.649-31.277A39.226,39.226,0,0,1,98.071.477a40.867,40.867,0,0,1,46.587,33.276,40.456,40.456,0,0,1-3.306,24.553,4.782,4.782,0,0,1-8.945-3.359c.481-1.7,1.1-3.363,1.676-5.035a28.518,28.518,0,0,0-1.122-21.662c-4.594-10.2-12.569-16.405-23.567-18.262a31.306,31.306,0,0,0-32.436,45.9c.138.255.257.518.458.925" transform="translate(-63.494 0)" fill="#fff"/>
      <path id="Path_2" data-name="Path 2" d="M143.533,30.8l8.386,3.916a18.963,18.963,0,0,1-7.053,7.792c-5.656,3.474-11.616,4.255-17.882,1.678a1.739,1.739,0,0,0-1.422.245,40.5,40.5,0,0,1-17.837,7.667,40.861,40.861,0,0,1-40.2-16.635c-.109-.154-.181-.333-.364-.674,3.022-1.151,5.966-2.324,8.959-3.353.366-.125,1.116.415,1.491.826A30.42,30.42,0,0,0,95.831,42.317c11.036,1.724,20.341-1.7,28.043-9.7.273-.283.536-.573.883-.945,2.471,3.133,5.457,5.218,9.642,5.025s6.751-2.806,9.134-5.9" transform="translate(-60.019 29.206)" fill="#ffc170"/>
      <path id="Path_3" data-name="Path 3" d="M82.659,29.712A6.285,6.285,0,0,1,76.3,23.206a6.272,6.272,0,0,1,6.416-6.291,6.4,6.4,0,1,1-.058,12.8" transform="translate(-51.349 16.042)" fill="#fff"/>
      <path id="Path_4" data-name="Path 4" d="M91.953,29.712a6.4,6.4,0,1,1,0-12.8,6.4,6.4,0,1,1,0,12.8" transform="translate(-42.577 16.042)" fill="#fff"/>
    </g>
    <g id="Group_274" data-name="Group 274" transform="translate(269.349 43.994)">
      <path id="Path_25684" data-name="Path 25684" d="M-69.7-2.268a6.925,6.925,0,0,1-3.726-1.107,9.583,9.583,0,0,0,2.457-6.7A10.322,10.322,0,0,0-81.5-20.358,10.33,10.33,0,0,0-91.948-9.936,10.305,10.305,0,0,0-81.418.378a11.027,11.027,0,0,0,5.859-1.755A7.537,7.537,0,0,0-71.212.243c.513.054,1,.081,1.512.108ZM-81.472-17.55a7.265,7.265,0,0,1,7.344,7.479A6.574,6.574,0,0,1-75.91-5.4a30.792,30.792,0,0,0-3.834-3.024,9.048,9.048,0,0,0-5-1.4,11,11,0,0,0-3.7.675,6.474,6.474,0,0,1-.135-1.944A7.032,7.032,0,0,1-81.5-17.55Zm.027,15.12a7.151,7.151,0,0,1-6.534-4.131,7.014,7.014,0,0,1,2.916-.567,8.013,8.013,0,0,1,4.806,1.593,31.667,31.667,0,0,1,2.4,2.106,6.519,6.519,0,0,1-3.564,1ZM-54.2-14.688H-57.01V-6.48c0,2.511-1.269,4.266-4.023,4.293-2.889,0-3.915-1.89-3.915-4.536v-7.965h-2.808v8.613c0,3.051,1.215,6.48,5.94,6.507,2.619.027,4.266-1.188,4.968-2.7V0H-54.2Zm18.036,8.235A7.919,7.919,0,0,0-38.38-12.96a7.676,7.676,0,0,0-5.427-2.16,7.726,7.726,0,0,0-7.749,7.8A7.679,7.679,0,0,0-43.78.432,7.452,7.452,0,0,0-39.6-.81a8.08,8.08,0,0,0,2.97-3.645h-2.916A4.557,4.557,0,0,1-43.78-1.971a4.791,4.791,0,0,1-4.941-4.482Zm-12.5-2.187a4.674,4.674,0,0,1,4.86-4.077,4.733,4.733,0,0,1,4.86,4.077ZM-33.412,0H-30.6V-8.181c0-2.538,1.269-4.266,4.023-4.293,2.862-.027,3.888,1.863,3.888,4.509V0h2.835V-8.613c0-3.051-1.242-6.453-5.94-6.507-2.619-.027-4.266,1.188-4.968,2.7v-2.268h-2.646Zm18.225,0h2.808V-12.5h2.835v-2.187h-2.835V-19.98h-2.808v5.292h-2.646V-12.5h2.646Zm7.749-17.01H-4.63v-2.97H-7.438Zm0,17.01H-4.63V-14.688H-7.438Zm6.48,0H1.85V-8.181c0-2.538,1.269-4.266,4.023-4.293,2.862-.027,3.888,1.863,3.888,4.509V0H12.6V-8.613c0-3.051-1.242-6.453-5.94-6.507-2.619-.027-4.266,1.188-4.968,2.7v-2.268H-.958ZM23.26-5.913C23.314-2.052,25.852.378,29.821.378c4.266,0,6.453-2.808,6.453-6.048s-2.322-4.509-4.806-5.562c-3.213-1.188-4.7-1.674-4.7-3.618a2.857,2.857,0,0,1,3.024-2.808c2.3,0,2.781,1.728,3,2.808h3.132c-.243-4.1-3.456-5.508-6.021-5.508-3.132,0-6.318,2.025-6.291,5.751,0,3.753,3.483,4.914,5.049,5.427,2.565.945,4.455,1.458,4.455,3.672a3.274,3.274,0,0,1-3.321,3.186c-1.053,0-3.159-.594-3.375-3.591ZM38.974,0h2.808V-8.046a5.217,5.217,0,0,1,.783-3,3.085,3.085,0,0,1,2.781-1.431,3.1,3.1,0,0,1,2.781,1.458A5.142,5.142,0,0,1,48.721-8.1V0h2.835V-8.1a4.862,4.862,0,0,1,.675-2.97,3.206,3.206,0,0,1,2.835-1.4,2.871,2.871,0,0,1,2.619,1.215,5.37,5.37,0,0,1,.81,3.267V0H61.3V-8.1c0-2.808-.324-4.212-1.62-5.535a5.438,5.438,0,0,0-3.942-1.485,5.417,5.417,0,0,0-3.888,1.539A6.266,6.266,0,0,0,50.8-12.123a8.074,8.074,0,0,0-.945-1.431,4.885,4.885,0,0,0-3.78-1.566,5.076,5.076,0,0,0-4.455,2.511v-2.079H38.974Zm25.92-17.01H67.7v-2.97H64.895Zm0,17.01H67.7V-14.688H64.895Zm6.48,0h2.808V-19.98H71.375ZM92.219-6.453A7.92,7.92,0,0,0,90-12.96a7.676,7.676,0,0,0-5.427-2.16,7.726,7.726,0,0,0-7.749,7.8A7.679,7.679,0,0,0,84.6.432,7.452,7.452,0,0,0,88.79-.81a8.08,8.08,0,0,0,2.97-3.645H88.843A4.557,4.557,0,0,1,84.6-1.971a4.791,4.791,0,0,1-4.941-4.482ZM79.717-8.64a4.674,4.674,0,0,1,4.86-4.077,4.733,4.733,0,0,1,4.86,4.077Z" transform="translate(93.413 20)" fill="#fff"/>
      <path id="Path_25683" data-name="Path 25683" d="M-63.93,0h4.5c4.98,0,7.52-2.96,7.52-7.42a7.4,7.4,0,0,0-1.78-5.16,7.283,7.283,0,0,0-5.82-2.22h-4.42Zm1.64-13.34h2.94a5.645,5.645,0,0,1,4.34,1.66,6.3,6.3,0,0,1,1.44,4.32c0,3.56-1.98,5.9-5.78,5.9h-2.94ZM-37.63,0h8.2V-1.46h-6.56V-6.74h6.52V-8.2h-6.52v-5.14h6.56V-14.8h-8.2Zm24.5-14.8h-1.68V0h1.6l-.04-12.46L-4.47,0h1.6V-14.8h-1.6l.02,12.36ZM14.39,0h1.66V-13.34h3.66V-14.8H10.75v1.46h3.64ZM33.95-4.16h6.9L42.57,0h1.8L38.25-14.8h-1.6L30.47,0h1.78Zm6.4-1.36h-5.9l2.94-7.42ZM58.03,0h7.3V-1.46H59.69V-14.8H58.03Z" transform="translate(93.413 48.616)" fill="#fff"/>
    </g>
  </g>
</svg>
